<svg width="130" height="20" viewBox="0 0 130 20" fill="none" xmlns="http://www.w3.org/2000/svg">
<path fill-rule="evenodd" clip-rule="evenodd" d="M130 12.6156C128.522 14.7328 126.022 15.3722 123.665 15.3722C119.615 15.3722 116.267 13.2756 116.267 10.005C116.267 6.87315 119.615 4.65112 123.781 4.65112C125.705 4.65112 127.59 5.0091 129.056 6.31035L129.18 6.4209C129.241 6.47785 129.315 6.55347 129.378 6.61903C129.464 6.70661 129.531 6.78175 129.531 6.78175C129.358 6.96648 129.189 7.06841 129.03 7.11627C128.854 7.17035 128.69 7.15456 128.551 7.11244C128.268 7.02534 128.083 6.82195 128.083 6.82195C127.057 5.82794 125.779 5.46901 124.369 5.46901C121.373 5.46901 119.443 7.17897 119.443 10.0657C119.443 12.6146 120.951 14.114 123.49 14.36C123.733 14.3983 123.994 14.4198 124.282 14.4198C124.725 14.4198 125.166 14.3681 125.596 14.2787C126.168 14.171 126.709 13.9867 127.21 13.7139C127.957 13.3363 128.596 12.8247 129.038 12.2193L130 12.6156ZM53.377 15.3722C49.3293 15.3722 45.9809 13.2756 45.9809 10.005C45.9809 6.87319 49.3293 4.65116 53.4951 4.65116C55.418 4.65116 57.3032 5.00913 58.7703 6.31038L58.8937 6.42093C58.9549 6.47788 59.0286 6.5535 59.0917 6.61906C59.1773 6.70664 59.2443 6.78178 59.2443 6.78178C59.0716 6.96651 58.9023 7.06845 58.7436 7.1163C58.5676 7.17038 58.4035 7.15459 58.2644 7.11248C57.9822 7.02537 57.7972 6.82198 57.7972 6.82198C56.7704 5.82798 55.4917 5.46904 54.0819 5.46904C51.0849 5.46904 49.1553 7.179 49.1553 10.0658C49.1553 12.6147 50.6645 14.1141 53.2034 14.36C53.4468 14.3983 53.7084 14.4199 53.9948 14.4199C54.4372 14.4199 54.8796 14.3682 55.31 14.2787C55.8805 14.171 56.4223 13.9868 56.9225 13.714C57.6704 13.3364 58.3108 12.8248 58.7517 12.2194L59.7139 12.6156C58.2371 14.7329 55.736 15.3722 53.377 15.3722V15.3722ZM85.7212 7.8951C85.7212 9.58256 84.0364 11.036 81.685 11.036H78.2614V10.5809C78.2614 10.3287 78.4676 10.1229 78.7181 10.1229H79.0041H80.2757C81.6257 10.1229 82.7304 9.13318 82.7304 7.92956C82.7304 6.7245 81.6257 5.73576 80.2757 5.73576H77.821V15.1948H74.8561V4.82886H77.7081H77.7096H81.685C84.0364 4.82886 85.7212 6.20859 85.7212 7.8951V7.8951ZM105.615 4.82883L114.607 4.82739V5.73573H108.581V9.21355H114.206V10.1133H108.581V14.2889H114.607V15.1948H105.615V4.82883ZM69.9134 15.1947L67.9814 11.9529H63.9816L64.378 11.2498C64.4593 11.1287 64.5966 11.0503 64.7534 11.0503L67.4386 11.0483L65.7357 8.18023L61.6063 15.1947H60.0822L66.4578 4.54688L73.0931 15.1947H69.9134ZM102.436 4.82739L103.687 4.82883V5.73573H99.703V15.1948H96.7605V5.73573L92.776 5.73956L92.7774 4.82883L102.436 4.82739ZM87.8746 15.1753H90.8582V4.81982H87.8746V15.1753Z" fill="var(--foreground, #0F2132)"/>
<path fill-rule="evenodd" clip-rule="evenodd" d="M25.9999 0.5H12.801V6.04096C12.801 8.01892 14.4188 9.62598 16.3958 9.62598H23.297C25.7684 9.62598 27.7898 11.7805 27.7898 14.2538V19.4904C32.5778 18.6984 36.2438 14.6654 36.2438 10.0036C36.2438 4.77656 31.6333 0.5 25.9999 0.5Z" fill="#E61414"/>
<path fill-rule="evenodd" clip-rule="evenodd" d="M20.9866 10.3209H14.107C11.6355 10.3209 9.61411 8.32906 9.61411 5.8553V0.51055C4.27097 0.814446 0 4.96466 0 9.99546C0 15.2225 4.61003 19.5 10.2444 19.5H24.5814V13.9188C24.5814 11.9399 22.9641 10.3209 20.9866 10.3209" fill="#00486D"/>
</svg>
